<?xml version="1.0" encoding="UTF-8"?>
<svg id="Layer_1" data-name="Layer 1" xmlns="http://www.w3.org/2000/svg" version="1.1" xmlns:xlink="http://www.w3.org/1999/xlink" viewBox="0 0 168 27">
  <defs>
    <style>
      .cls-1 {
        fill: url(#linear-gradient-12);
      }

      .cls-1, .cls-2, .cls-3, .cls-4, .cls-5, .cls-6, .cls-7, .cls-8, .cls-9, .cls-10 {
        stroke-width: 0px;
      }

      .cls-2 {
        fill: url(#linear-gradient-6);
      }

      .cls-11, .cls-12 {
        isolation: isolate;
      }

      .cls-3 {
        fill: url(#linear-gradient-5);
      }

      .cls-12 {
        fill: #563aff;
        font-family: FranklinGothic-Heavy, 'Franklin Gothic Heavy';
        font-size: 24px;
        font-weight: 800;
      }

      .cls-13 {
        stroke: url(#linear-gradient-11);
      }

      .cls-13, .cls-14 {
        fill: none;
        stroke-width: .5px;
      }

      .cls-4 {
        fill: url(#linear-gradient-2);
      }

      .cls-15 {
        mix-blend-mode: screen;
      }

      .cls-5 {
        fill: url(#linear-gradient-7);
      }

      .cls-6 {
        fill: url(#linear-gradient-3);
      }

      .cls-7 {
        display: none;
        fill: url(#linear-gradient);
      }

      .cls-8 {
        fill: url(#linear-gradient-9);
      }

      .cls-9 {
        fill: url(#linear-gradient-8);
      }

      .cls-14 {
        stroke: url(#linear-gradient-10);
      }

      .cls-10 {
        fill: url(#linear-gradient-4);
      }
    </style>
    <linearGradient id="linear-gradient" x1="93.4" y1="1032.6" x2="106.2" y2="1090.1" gradientTransform="translate(0 -1052)" gradientUnits="userSpaceOnUse">
      <stop offset="0" stop-color="#868cff"/>
      <stop offset="1" stop-color="#4318ff"/>
    </linearGradient>
    <linearGradient id="linear-gradient-2" x1="31.3" y1="1052.2" x2="31.6" y2="1052.2" gradientTransform="translate(0 -1052)" gradientUnits="userSpaceOnUse">
      <stop offset="0" stop-color="#26a4ff"/>
      <stop offset="1" stop-color="#0d9aff"/>
    </linearGradient>
    <linearGradient id="linear-gradient-3" x1="5.2" y1="1056.1" x2="6" y2="1056.1" gradientTransform="translate(0 -1052)" gradientUnits="userSpaceOnUse">
      <stop offset="0" stop-color="#26a4ff"/>
      <stop offset="1" stop-color="#0d9aff"/>
    </linearGradient>
    <linearGradient id="linear-gradient-4" x1="1" y1="1068.5" x2="1.8" y2="1068.5" gradientTransform="translate(0 -1052)" gradientUnits="userSpaceOnUse">
      <stop offset="0" stop-color="#26a4ff"/>
      <stop offset="1" stop-color="#0d9aff"/>
    </linearGradient>
    <linearGradient id="linear-gradient-5" x1="25.1" y1="1071.9" x2="25.9" y2="1071.9" gradientTransform="translate(0 -1052)" gradientUnits="userSpaceOnUse">
      <stop offset="0" stop-color="#26a4ff"/>
      <stop offset="1" stop-color="#0d9aff"/>
    </linearGradient>
    <linearGradient id="linear-gradient-6" x1="6.3" y1="1065" x2="6.6" y2="1065" gradientTransform="translate(0 -1052)" gradientUnits="userSpaceOnUse">
      <stop offset="0" stop-color="#26a4ff"/>
      <stop offset="1" stop-color="#0d9aff"/>
    </linearGradient>
    <linearGradient id="linear-gradient-7" x1="12.2" y1="1051.7" x2="12.7" y2="1051.7" gradientTransform="translate(0 -1052)" gradientUnits="userSpaceOnUse">
      <stop offset="0" stop-color="#26a4ff"/>
      <stop offset="1" stop-color="#0d9aff"/>
    </linearGradient>
    <linearGradient id="linear-gradient-8" x1="4.1" y1="1061.9" x2="1.7" y2="1062.3" gradientTransform="translate(0 -1052)" gradientUnits="userSpaceOnUse">
      <stop offset="0" stop-color="#26a4ff"/>
      <stop offset="1" stop-color="#0d9aff"/>
    </linearGradient>
    <linearGradient id="linear-gradient-9" x1="2.6" y1="1051.1" x2="27.5" y2="1075.1" gradientTransform="translate(0 -1052)" gradientUnits="userSpaceOnUse">
      <stop offset="0" stop-color="#868cff"/>
      <stop offset="1" stop-color="#4318ff"/>
    </linearGradient>
    <linearGradient id="linear-gradient-10" x1="14.2" y1="1070.6" x2="13.1" y2="1067.6" gradientTransform="translate(0 -1052)" gradientUnits="userSpaceOnUse">
      <stop offset="0" stop-color="#3f5fff"/>
      <stop offset="1" stop-color="#3f5fff" stop-opacity="0"/>
    </linearGradient>
    <linearGradient id="linear-gradient-11" x1="14.2" y1="1070.6" x2="13.1" y2="1067.6" gradientTransform="translate(0 -1052)" gradientUnits="userSpaceOnUse">
      <stop offset="0" stop-color="#1da0ff"/>
      <stop offset="1" stop-color="#199fff" stop-opacity=".1"/>
    </linearGradient>
    <linearGradient id="linear-gradient-12" x1="25.6" y1="1056.3" x2="22.2" y2="1055.9" gradientTransform="translate(0 -1052)" gradientUnits="userSpaceOnUse">
      <stop offset="0" stop-color="#26a4ff"/>
      <stop offset="1" stop-color="#0d9aff"/>
    </linearGradient>
  </defs>
  <g class="cls-11">
    <g id="Layer_1-2" data-name="Layer 1">
      <path class="cls-7" d="M41.2,18.7v2.6h-7.3v-2.6h2.2V7h-2.2v-2.7h7.3v2.7h-2.1v11.7h2.1ZM44.8,21.3V4.4h5.2l3.8,15.7h0l3.8-15.7h5.1v17h-3.1l.2-15.6h0l-3.9,15.6h-4.4l-3.9-15.6h0l.2,15.6h-3.1.1ZM65,21.3l5.2-17h4.8l5.4,17h-3.2l-1.4-4.8h-6.4l-1.4,4.8h-3.1,0ZM72.7,5.7l-2.5,8.5h5l-2.5-8.5ZM89.3,21.7c-1.6,0-3-.3-4.2-1s-2.1-1.6-2.7-2.9-.9-2.9-.9-4.8.4-3.5,1.1-4.9c.7-1.3,1.7-2.3,2.9-3,1.2-.7,2.7-1,4.3-1s3.9.5,5.2,1.5c1.2,1,2,2.5,2.4,4.4l-2.8.4c-.3-1.3-.9-2.2-1.8-2.7s-1.9-.8-3-.8c-1.9,0-3.2.5-4.1,1.6-.9,1-1.3,2.4-1.3,4.2s.5,3.4,1.5,4.5c1,1,2.4,1.5,4.2,1.5s2.1-.3,3-.8c.9-.6,1.5-1.5,1.8-2.7h-3.6v-2.3h6.4v8.4h-2l-.7-3h0c-.2.5-.5,1-1,1.5s-1.1.9-1.9,1.3c-.8.3-1.7.5-2.8.5h0ZM107.9,18.7v2.6h-7.3v-2.6h2.2V7h-2.2v-2.7h7.3v2.7h-2.1v11.7h2.1ZM122.7,4.4h3.1v17h-5.6l-5.6-15.6h0v15.6h-3V4.4h5.2l6,15.6h0V4.4h0ZM136.5,18.7v2.6h-7.3v-2.6h2.2V7h-2.2v-2.7h7.3v2.7h-2.1v11.7h2.1ZM143.2,21.3h-2.9V4.4h11.6v2.7h-8.7v4.2h6.7v2.5h-6.7v7.7-.2ZM158.9,21.3v-6l-5.6-11h3.3l3.8,8.3,3.7-8.3h3.3l-5.7,10.9v6h-2.9,0Z"/>
      <path class="cls-4" d="M31.4.4s.2,0,.2-.2,0-.2-.2-.2-.2,0-.2.2,0,.2.2.2Z"/>
      <path class="cls-6" d="M5.6,4.5c.2,0,.4-.2.4-.4s-.2-.4-.4-.4-.4.2-.4.4.2.4.4.4Z"/>
      <path class="cls-10" d="M1.4,16.9c.2,0,.4-.2.4-.4s-.2-.4-.4-.4-.4.2-.4.4.2.4.4.4Z"/>
      <path class="cls-3" d="M25.4,20.3c.2,0,.4-.2.4-.4s-.2-.4-.4-.4-.4.2-.4.4.2.4.4.4Z"/>
      <path class="cls-2" d="M6.4,13.2s.2,0,.2-.2,0-.2-.2-.2-.2,0-.2.2,0,.2.2.2Z"/>
      <path class="cls-5" d="M12.4,0c.1,0,.2-.1.2-.3s-.1-.3-.2-.3-.2,0-.2.3S12.3,0,12.4,0Z"/>
      <path class="cls-9" d="M3.1,11.4s-.2,0-.2-.1c-.2-.8-.3-.8-1.1-.8,0,0-.2,0-.2-.1,0,0,0-.2.1-.2.7-.2.8-.3.8-1.1,0,0,0-.2,0-.2,0,0,.2,0,.2.1.2.8.3.8,1.1.8,0,0,.2,0,.2.1,0,0,0,.2,0,.2-.7.2-.8.3-.8,1.1,0,0,0,.2,0,.2Z"/>
      <path class="cls-8" d="M16.5,4.7c-.2,0-.4.3-.4.5s.1.4.4.5c1.7.7,3,2,3.6,3.8,0,.2.3.4.5.4s.4-.1.5-.4c.6-1.8,2-3.1,3.6-3.8.2,0,.4-.3.4-.5s-.1-.4-.4-.5c-1.7-.7-3-2-3.6-3.8,0-.2-.3-.4-.5-.4s-.4.1-.5.4c-.6,1.8-2,3.1-3.6,3.8ZM10.8,4.1c-.1-.3-.4-.5-.7-.5s-.6.2-.7.5c-1.6,3.6-4.4,6.5-7.8,8.1-.3.1-.4.4-.4.7s.2.6.4.7c3.4,1.7,6.2,4.5,7.8,8.1.1.3.4.5.7.5s.6-.2.7-.5c1.6-3.6,4.4-6.5,7.8-8.1.3-.1.4-.4.4-.7s-.2-.6-.4-.7c-3.4-1.7-6.2-4.5-7.8-8.1ZM20.2,16.5c-.6,1.8-2,3.1-3.6,3.8-.2,0-.4.3-.4.5s.1.4.4.5c1.7.7,3,2,3.6,3.8,0,.2.3.4.5.4s.4-.1.5-.4c.6-1.8,2-3.1,3.6-3.8.2,0,.4-.3.4-.5s-.1-.4-.4-.5c-1.7-.7-3-2-3.6-3.8,0-.2-.3-.4-.5-.4s-.4.1-.5.4Z"/>
      <path class="cls-14" d="M12.9,14.6C5.7,17.2.2,20.3.7,21.6c.4,1.3,6.6.2,13.7-2.4,7.2-2.6,12.6-5.7,12.2-7s-6.6-.2-13.7,2.4Z"/>
      <g class="cls-15">
        <path class="cls-13" d="M12.9,14.6C5.7,17.2.2,20.3.7,21.6c.4,1.3,6.6.2,13.7-2.4,7.2-2.6,12.6-5.7,12.2-7s-6.6-.2-13.7,2.4Z"/>
      </g>
      <path class="cls-1" d="M23.8,5.9c-.1,0-.2,0-.2-.2,0-1.1-.1-1.3-1.1-1.5-.1,0-.2,0-.2-.3s.1-.2.2-.2c1,0,1.1,0,1.5-1.1,0,0,.1-.2.2-.2s.2.1.2.2c0,1.1.1,1.3,1.1,1.5.1,0,.2,0,.2.3s-.1.2-.2.2c-1,0-1.1,0-1.5,1.1,0,0-.1.2-.2.2Z"/>
      <g class="cls-11">
        <text class="cls-12" transform="translate(30.3 21.3)"><tspan x="0" y="0">ImageGenie</tspan></text>
      </g>
    </g>
  </g>
  <text/>
</svg>