<?xml version="1.0" encoding="UTF-8"?>
<svg id="Layer_1" data-name="Layer 1" xmlns="http://www.w3.org/2000/svg" version="1.1" xmlns:xlink="http://www.w3.org/1999/xlink" viewBox="0 0 168 27">
  <defs>
    <style>
      .cls-1 {
        fill: url(#linear-gradient);
      }

      .cls-1, .cls-2, .cls-3, .cls-4, .cls-5, .cls-6, .cls-7, .cls-8, .cls-9 {
        stroke-width: 0px;
      }

      .cls-2 {
        fill: url(#linear-gradient-6);
      }

      .cls-10, .cls-11 {
        isolation: isolate;
      }

      .cls-3 {
        fill: url(#linear-gradient-11);
      }

      .cls-4 {
        fill: url(#linear-gradient-5);
      }

      .cls-5 {
        fill: url(#linear-gradient-2);
      }

      .cls-12 {
        mix-blend-mode: screen;
      }

      .cls-13 {
        stroke: url(#linear-gradient-9);
      }

      .cls-13, .cls-14 {
        fill: none;
        stroke-width: .5px;
      }

      .cls-6 {
        fill: url(#linear-gradient-7);
      }

      .cls-7 {
        fill: url(#linear-gradient-3);
      }

      .cls-11 {
        fill: #5537ff;
        font-family: ArialMT, Arial;
        font-size: 24px;
      }

      .cls-8 {
        fill: url(#linear-gradient-8);
      }

      .cls-14 {
        stroke: url(#linear-gradient-10);
      }

      .cls-9 {
        fill: url(#linear-gradient-4);
      }
    </style>
    <linearGradient id="linear-gradient" x1="31.4" y1="1053.7" x2="31.7" y2="1053.7" gradientTransform="translate(0 -1052)" gradientUnits="userSpaceOnUse">
      <stop offset="0" stop-color="#26a4ff"/>
      <stop offset="1" stop-color="#0d9aff"/>
    </linearGradient>
    <linearGradient id="linear-gradient-2" x1="5.3" y1="1057.6" x2="6.1" y2="1057.6" gradientTransform="translate(0 -1052)" gradientUnits="userSpaceOnUse">
      <stop offset="0" stop-color="#26a4ff"/>
      <stop offset="1" stop-color="#0d9aff"/>
    </linearGradient>
    <linearGradient id="linear-gradient-3" x1="1.1" y1="1070" x2="1.9" y2="1070" gradientTransform="translate(0 -1052)" gradientUnits="userSpaceOnUse">
      <stop offset="0" stop-color="#26a4ff"/>
      <stop offset="1" stop-color="#0d9aff"/>
    </linearGradient>
    <linearGradient id="linear-gradient-4" x1="25.2" y1="1073.4" x2="26" y2="1073.4" gradientTransform="translate(0 -1052)" gradientUnits="userSpaceOnUse">
      <stop offset="0" stop-color="#26a4ff"/>
      <stop offset="1" stop-color="#0d9aff"/>
    </linearGradient>
    <linearGradient id="linear-gradient-5" x1="6.4" y1="1066.5" x2="6.7" y2="1066.5" gradientTransform="translate(0 -1052)" gradientUnits="userSpaceOnUse">
      <stop offset="0" stop-color="#26a4ff"/>
      <stop offset="1" stop-color="#0d9aff"/>
    </linearGradient>
    <linearGradient id="linear-gradient-6" x1="12.3" y1="1053.2" x2="12.8" y2="1053.2" gradientTransform="translate(0 -1052)" gradientUnits="userSpaceOnUse">
      <stop offset="0" stop-color="#26a4ff"/>
      <stop offset="1" stop-color="#0d9aff"/>
    </linearGradient>
    <linearGradient id="linear-gradient-7" x1="4.2" y1="1063.4" x2="1.8" y2="1063.8" gradientTransform="translate(0 -1052)" gradientUnits="userSpaceOnUse">
      <stop offset="0" stop-color="#26a4ff"/>
      <stop offset="1" stop-color="#0d9aff"/>
    </linearGradient>
    <linearGradient id="linear-gradient-8" x1="2.7" y1="1052.6" x2="27.6" y2="1076.6" gradientTransform="translate(0 -1052)" gradientUnits="userSpaceOnUse">
      <stop offset="0" stop-color="#868cff"/>
      <stop offset="1" stop-color="#4318ff"/>
    </linearGradient>
    <linearGradient id="linear-gradient-9" x1="14.4" y1="1072.1" x2="13.3" y2="1069.1" gradientTransform="translate(0 -1052)" gradientUnits="userSpaceOnUse">
      <stop offset="0" stop-color="#3f5fff"/>
      <stop offset="1" stop-color="#3f5fff" stop-opacity="0"/>
    </linearGradient>
    <linearGradient id="linear-gradient-10" x1="14.4" y1="1072.1" x2="13.3" y2="1069.1" gradientTransform="translate(0 -1052)" gradientUnits="userSpaceOnUse">
      <stop offset="0" stop-color="#1da0ff"/>
      <stop offset="1" stop-color="#199fff" stop-opacity=".1"/>
    </linearGradient>
    <linearGradient id="linear-gradient-11" x1="25.7" y1="1057.8" x2="22.3" y2="1057.4" gradientTransform="translate(0 -1052)" gradientUnits="userSpaceOnUse">
      <stop offset="0" stop-color="#26a4ff"/>
      <stop offset="1" stop-color="#0d9aff"/>
    </linearGradient>
  </defs>
  <g class="cls-10">
    <g id="Layer_1-2" data-name="Layer 1">
      <path class="cls-1" d="M31.5,1.9s.2,0,.2-.2,0-.2-.2-.2-.2,0-.2.2,0,.2.2.2Z"/>
      <path class="cls-5" d="M5.7,6c.2,0,.4-.2.4-.4s-.2-.4-.4-.4-.4.2-.4.4.2.4.4.4Z"/>
      <path class="cls-7" d="M1.5,18.4c.2,0,.4-.2.4-.4s-.2-.4-.4-.4-.4.2-.4.4.2.4.4.4Z"/>
      <path class="cls-9" d="M25.5,21.8c.2,0,.4-.2.4-.4s-.2-.4-.4-.4-.4.2-.4.4.2.4.4.4Z"/>
      <path class="cls-4" d="M6.5,14.7s.2,0,.2-.2,0-.2-.2-.2-.2,0-.2.2,0,.2.2.2Z"/>
      <path class="cls-2" d="M12.5,1.5c.1,0,.2-.1.2-.3s-.1-.3-.2-.3-.2,0-.2.3.1.3.2.3Z"/>
      <path class="cls-6" d="M3.2,12.9s-.2,0-.2-.1c-.2-.8-.3-.8-1.1-.8,0,0-.2,0-.2-.1,0,0,0-.2.1-.2.7-.2.8-.3.8-1.1,0,0,0-.2,0-.2,0,0,.2,0,.2.1.2.8.3.8,1.1.8,0,0,.2,0,.2.1,0,0,0,.2,0,.2-.7.2-.8.3-.8,1.1,0,0,0,.2,0,.2Z"/>
      <path class="cls-8" d="M16.6,6.2c-.2,0-.4.3-.4.5s.1.4.4.5c1.7.7,3,2,3.6,3.8,0,.2.3.4.5.4s.4-.1.5-.4c.6-1.8,2-3.1,3.6-3.8.2,0,.4-.3.4-.5s-.1-.4-.4-.5c-1.7-.7-3-2-3.6-3.8,0-.2-.3-.4-.5-.4s-.4.1-.5.4c-.6,1.8-2,3.1-3.6,3.8ZM10.9,5.6c-.1-.3-.4-.5-.7-.5s-.6.2-.7.5c-1.6,3.6-4.4,6.5-7.8,8.1-.3.1-.4.4-.4.7s.2.6.4.7c3.4,1.7,6.2,4.5,7.8,8.1.1.3.4.5.7.5s.6-.2.7-.5c1.6-3.6,4.4-6.5,7.8-8.1.3-.1.4-.4.4-.7s-.2-.6-.4-.7c-3.4-1.7-6.2-4.5-7.8-8.1ZM20.3,18c-.6,1.8-2,3.1-3.6,3.8-.2,0-.4.3-.4.5s.1.4.4.5c1.7.7,3,2,3.6,3.8,0,.2.3.4.5.4s.4-.1.5-.4c.6-1.8,2-3.1,3.6-3.8.2,0,.4-.3.4-.5s-.1-.4-.4-.5c-1.7-.7-3-2-3.6-3.8,0-.2-.3-.4-.5-.4s-.4.1-.5.4Z"/>
      <path class="cls-13" d="M13,16.1C5.8,18.7.3,21.8.8,23.1c.4,1.3,6.6.2,13.7-2.4,7.2-2.6,12.6-5.7,12.2-7s-6.6-.2-13.7,2.4Z"/>
      <g class="cls-12">
        <path class="cls-14" d="M13,16.1C5.8,18.7.3,21.8.8,23.1c.4,1.3,6.6.2,13.7-2.4,7.2-2.6,12.6-5.7,12.2-7s-6.6-.2-13.7,2.4Z"/>
      </g>
      <path class="cls-3" d="M23.9,7.4c-.1,0-.2,0-.2-.2,0-1.1-.1-1.3-1.1-1.5-.1,0-.2,0-.2-.3s.1-.2.2-.2c1,0,1.1,0,1.5-1.1,0,0,.1-.2.2-.2s.2.1.2.2c0,1.1.1,1.3,1.1,1.5.1,0,.2,0,.2.3s-.1.2-.2.2c-1,0-1.1,0-1.5,1.1,0,0-.1.2-.2.2Z"/>
      <text class="cls-11" transform="translate(31.3 21)"><tspan x="0" y="0">ImageGenie</tspan></text>
    </g>
  </g>
</svg>